<?xml version="1.0" encoding="UTF-8" standalone="no"?>
<!DOCTYPE svg PUBLIC "-//W3C//DTD SVG 1.1//EN"
 "http://www.w3.org/Graphics/SVG/1.1/DTD/svg11.dtd">
<!-- Generated by graphviz version 2.43.0 (0)
 -->
<!-- Title: structs Pages: 1 -->
<svg width="644pt" height="1104pt"
 viewBox="0.00 0.00 644.00 1103.50" xmlns="http://www.w3.org/2000/svg" xmlns:xlink="http://www.w3.org/1999/xlink">
<g id="graph0" class="graph" transform="scale(1 1) rotate(0) translate(4 1099.5)">
<title>structs</title>
<polygon fill="white" stroke="transparent" points="-4,4 -4,-1099.5 640,-1099.5 640,4 -4,4"/>
<!-- __tower_sessions -->
<g id="node1" class="node">
<title>__tower_sessions</title>
<polygon fill="none" stroke="black" points="37,-67 37,-88 175,-88 175,-67 37,-67"/>
<text text-anchor="start" x="40" y="-74.8" font-family="Times,serif" font-weight="bold" font-size="14.00">__tower_sessions</text>
<polygon fill="none" stroke="black" points="37,-46 37,-67 73,-67 73,-46 37,-46"/>
<text text-anchor="start" x="46" y="-52.8" font-family="Times,serif" font-size="14.00">🔑</text>
<polygon fill="none" stroke="black" points="73,-46 73,-67 175,-67 175,-46 73,-46"/>
<text text-anchor="start" x="117" y="-52.8" font-family="Times,serif" font-size="14.00">id</text>
<polygon fill="none" stroke="black" points="37,-25 37,-46 73,-46 73,-25 37,-25"/>
<text text-anchor="start" x="52.5" y="-31.8" font-family="Times,serif" font-size="14.00"> </text>
<polygon fill="none" stroke="black" points="73,-25 73,-46 175,-46 175,-25 73,-25"/>
<text text-anchor="start" x="108" y="-31.8" font-family="Times,serif" font-size="14.00">data</text>
<polygon fill="none" stroke="black" points="37,-4 37,-25 73,-25 73,-4 37,-4"/>
<text text-anchor="start" x="52.5" y="-10.8" font-family="Times,serif" font-size="14.00"> </text>
<polygon fill="none" stroke="black" points="73,-4 73,-25 175,-25 175,-4 73,-4"/>
<text text-anchor="start" x="82" y="-10.8" font-family="Times,serif" font-size="14.00">expiry_date</text>
</g>
<!-- credential -->
<g id="node2" class="node">
<title>credential</title>
<polygon fill="none" stroke="black" points="256,-939 256,-960 416,-960 416,-939 256,-939"/>
<text text-anchor="start" x="295.5" y="-946.8" font-family="Times,serif" font-weight="bold" font-size="14.00">credential</text>
<polygon fill="none" stroke="black" points="256,-918 256,-939 280,-939 280,-918 256,-918"/>
<text text-anchor="start" x="259" y="-924.8" font-family="Times,serif" font-size="14.00">🔑</text>
<polygon fill="none" stroke="black" points="280,-918 280,-939 416,-939 416,-918 280,-918"/>
<text text-anchor="start" x="341" y="-924.8" font-family="Times,serif" font-size="14.00">id</text>
<polygon fill="none" stroke="black" points="256,-897 256,-918 280,-918 280,-897 256,-897"/>
<text text-anchor="start" x="265.5" y="-903.8" font-family="Times,serif" font-size="14.00"> </text>
<polygon fill="none" stroke="black" points="280,-897 280,-918 416,-918 416,-897 280,-897"/>
<text text-anchor="start" x="322" y="-903.8" font-family="Times,serif" font-size="14.00">user_id</text>
<polygon fill="none" stroke="black" points="256,-876 256,-897 280,-897 280,-876 256,-876"/>
<text text-anchor="start" x="265.5" y="-882.8" font-family="Times,serif" font-size="14.00"> </text>
<polygon fill="none" stroke="black" points="280,-876 280,-897 416,-897 416,-876 280,-876"/>
<text text-anchor="start" x="319" y="-882.8" font-family="Times,serif" font-size="14.00">passkey</text>
<polygon fill="none" stroke="black" points="256,-855 256,-876 280,-876 280,-855 256,-855"/>
<text text-anchor="start" x="265.5" y="-861.8" font-family="Times,serif" font-size="14.00"> </text>
<polygon fill="none" stroke="black" points="280,-855 280,-876 416,-876 416,-855 280,-855"/>
<text text-anchor="start" x="320.5" y="-861.8" font-family="Times,serif" font-size="14.00">counter</text>
<polygon fill="none" stroke="black" points="256,-834 256,-855 280,-855 280,-834 256,-834"/>
<text text-anchor="start" x="265.5" y="-840.8" font-family="Times,serif" font-size="14.00"> </text>
<polygon fill="none" stroke="black" points="280,-834 280,-855 416,-855 416,-834 280,-834"/>
<text text-anchor="start" x="292.5" y="-840.8" font-family="Times,serif" font-size="14.00">backup_eligible</text>
<polygon fill="none" stroke="black" points="256,-813 256,-834 280,-834 280,-813 256,-813"/>
<text text-anchor="start" x="265.5" y="-819.8" font-family="Times,serif" font-size="14.00"> </text>
<polygon fill="none" stroke="black" points="280,-813 280,-834 416,-834 416,-813 280,-813"/>
<text text-anchor="start" x="301" y="-819.8" font-family="Times,serif" font-size="14.00">backup_state</text>
<polygon fill="none" stroke="black" points="256,-792 256,-813 280,-813 280,-792 256,-792"/>
<text text-anchor="start" x="265.5" y="-798.8" font-family="Times,serif" font-size="14.00"> </text>
<polygon fill="none" stroke="black" points="280,-792 280,-813 416,-813 416,-792 280,-792"/>
<text text-anchor="start" x="299.5" y="-798.8" font-family="Times,serif" font-size="14.00">creation_date</text>
<polygon fill="none" stroke="black" points="256,-771 256,-792 280,-792 280,-771 256,-771"/>
<text text-anchor="start" x="265.5" y="-777.8" font-family="Times,serif" font-size="14.00"> </text>
<polygon fill="none" stroke="black" points="280,-771 280,-792 416,-792 416,-771 280,-771"/>
<text text-anchor="start" x="283" y="-777.8" font-family="Times,serif" font-size="14.00">last_updated_date</text>
<polygon fill="none" stroke="black" points="256,-750 256,-771 280,-771 280,-750 256,-750"/>
<text text-anchor="start" x="265.5" y="-756.8" font-family="Times,serif" font-size="14.00"> </text>
<polygon fill="none" stroke="black" points="280,-750 280,-771 416,-771 416,-750 280,-750"/>
<text text-anchor="start" x="295" y="-756.8" font-family="Times,serif" font-size="14.00">last_used_date</text>
</g>
<!-- user -->
<g id="node12" class="node">
<title>user</title>
<polygon fill="none" stroke="black" points="468,-823 468,-844 628,-844 628,-823 468,-823"/>
<text text-anchor="start" x="530" y="-830.8" font-family="Times,serif" font-weight="bold" font-size="14.00">user</text>
<polygon fill="none" stroke="black" points="468,-802 468,-823 492,-823 492,-802 468,-802"/>
<text text-anchor="start" x="471" y="-808.8" font-family="Times,serif" font-size="14.00">🔑</text>
<polygon fill="none" stroke="black" points="492,-802 492,-823 628,-823 628,-802 492,-802"/>
<text text-anchor="start" x="553" y="-808.8" font-family="Times,serif" font-size="14.00">id</text>
<polygon fill="none" stroke="black" points="468,-781 468,-802 492,-802 492,-781 468,-781"/>
<text text-anchor="start" x="477.5" y="-787.8" font-family="Times,serif" font-size="14.00"> </text>
<polygon fill="none" stroke="black" points="492,-781 492,-802 628,-802 628,-781 492,-781"/>
<text text-anchor="start" x="524.5" y="-787.8" font-family="Times,serif" font-size="14.00">username</text>
<polygon fill="none" stroke="black" points="468,-760 468,-781 492,-781 492,-760 468,-760"/>
<text text-anchor="start" x="477.5" y="-766.8" font-family="Times,serif" font-size="14.00"> </text>
<polygon fill="none" stroke="black" points="492,-760 492,-781 628,-781 628,-760 492,-760"/>
<text text-anchor="start" x="540" y="-766.8" font-family="Times,serif" font-size="14.00">email</text>
<polygon fill="none" stroke="black" points="468,-739 468,-760 492,-760 492,-739 468,-739"/>
<text text-anchor="start" x="477.5" y="-745.8" font-family="Times,serif" font-size="14.00"> </text>
<polygon fill="none" stroke="black" points="492,-739 492,-760 628,-760 628,-739 492,-739"/>
<text text-anchor="start" x="511.5" y="-745.8" font-family="Times,serif" font-size="14.00">display_name</text>
<polygon fill="none" stroke="black" points="468,-718 468,-739 492,-739 492,-718 468,-718"/>
<text text-anchor="start" x="477.5" y="-724.8" font-family="Times,serif" font-size="14.00"> </text>
<polygon fill="none" stroke="black" points="492,-718 492,-739 628,-739 628,-718 492,-718"/>
<text text-anchor="start" x="511.5" y="-724.8" font-family="Times,serif" font-size="14.00">creation_date</text>
<polygon fill="none" stroke="black" points="468,-697 468,-718 492,-718 492,-697 468,-697"/>
<text text-anchor="start" x="477.5" y="-703.8" font-family="Times,serif" font-size="14.00"> </text>
<polygon fill="none" stroke="black" points="492,-697 492,-718 628,-718 628,-697 492,-697"/>
<text text-anchor="start" x="495" y="-703.8" font-family="Times,serif" font-size="14.00">last_updated_date</text>
<polygon fill="none" stroke="black" points="468,-676 468,-697 492,-697 492,-676 468,-676"/>
<text text-anchor="start" x="477.5" y="-682.8" font-family="Times,serif" font-size="14.00"> </text>
<polygon fill="none" stroke="black" points="492,-676 492,-697 628,-697 628,-676 492,-676"/>
<text text-anchor="start" x="506.5" y="-682.8" font-family="Times,serif" font-size="14.00">last_login_date</text>
</g>
<!-- credential&#45;&gt;user -->
<g id="edge9" class="edge">
<title>credential:e&#45;&gt;user:w</title>
<path fill="none" stroke="black" d="M417,-908C460.8,-908 426.11,-827.95 457.04,-814.81"/>
<polygon fill="black" stroke="black" points="457.79,-818.23 467,-813 456.53,-811.35 457.79,-818.23"/>
</g>
<!-- exercise -->
<g id="node3" class="node">
<title>exercise</title>
<polygon fill="none" stroke="black" points="256,-339 256,-360 416,-360 416,-339 256,-339"/>
<text text-anchor="start" x="303.5" y="-346.8" font-family="Times,serif" font-weight="bold" font-size="14.00">exercise</text>
<polygon fill="none" stroke="black" points="256,-318 256,-339 280,-339 280,-318 256,-318"/>
<text text-anchor="start" x="259" y="-324.8" font-family="Times,serif" font-size="14.00">🔑</text>
<polygon fill="none" stroke="black" points="280,-318 280,-339 416,-339 416,-318 280,-318"/>
<text text-anchor="start" x="341" y="-324.8" font-family="Times,serif" font-size="14.00">id</text>
<polygon fill="none" stroke="black" points="256,-297 256,-318 280,-318 280,-297 256,-297"/>
<text text-anchor="start" x="265.5" y="-303.8" font-family="Times,serif" font-size="14.00"> </text>
<polygon fill="none" stroke="black" points="280,-297 280,-318 416,-318 416,-297 280,-297"/>
<text text-anchor="start" x="328" y="-303.8" font-family="Times,serif" font-size="14.00">name</text>
<polygon fill="none" stroke="black" points="256,-276 256,-297 280,-297 280,-276 256,-276"/>
<text text-anchor="start" x="265.5" y="-282.8" font-family="Times,serif" font-size="14.00"> </text>
<polygon fill="none" stroke="black" points="280,-276 280,-297 416,-297 416,-276 280,-276"/>
<text text-anchor="start" x="307.5" y="-282.8" font-family="Times,serif" font-size="14.00">description</text>
<polygon fill="none" stroke="black" points="256,-255 256,-276 280,-276 280,-255 256,-255"/>
<text text-anchor="start" x="265.5" y="-261.8" font-family="Times,serif" font-size="14.00"> </text>
<polygon fill="none" stroke="black" points="280,-255 280,-276 416,-276 416,-255 280,-255"/>
<text text-anchor="start" x="299.5" y="-261.8" font-family="Times,serif" font-size="14.00">creation_date</text>
<polygon fill="none" stroke="black" points="256,-234 256,-255 280,-255 280,-234 256,-234"/>
<text text-anchor="start" x="265.5" y="-240.8" font-family="Times,serif" font-size="14.00"> </text>
<polygon fill="none" stroke="black" points="280,-234 280,-255 416,-255 416,-234 280,-234"/>
<text text-anchor="start" x="283" y="-240.8" font-family="Times,serif" font-size="14.00">last_updated_date</text>
</g>
<!-- exercise_group -->
<g id="node4" class="node">
<title>exercise_group</title>
<polygon fill="none" stroke="black" points="256,-491 256,-512 416,-512 416,-491 256,-491"/>
<text text-anchor="start" x="277" y="-498.8" font-family="Times,serif" font-weight="bold" font-size="14.00">exercise_group</text>
<polygon fill="none" stroke="black" points="256,-470 256,-491 280,-491 280,-470 256,-470"/>
<text text-anchor="start" x="259" y="-476.8" font-family="Times,serif" font-size="14.00">🔑</text>
<polygon fill="none" stroke="black" points="280,-470 280,-491 416,-491 416,-470 280,-470"/>
<text text-anchor="start" x="341" y="-476.8" font-family="Times,serif" font-size="14.00">id</text>
<polygon fill="none" stroke="black" points="256,-449 256,-470 280,-470 280,-449 256,-449"/>
<text text-anchor="start" x="265.5" y="-455.8" font-family="Times,serif" font-size="14.00"> </text>
<polygon fill="none" stroke="black" points="280,-449 280,-470 416,-470 416,-449 280,-449"/>
<text text-anchor="start" x="328" y="-455.8" font-family="Times,serif" font-size="14.00">name</text>
<polygon fill="none" stroke="black" points="256,-428 256,-449 280,-449 280,-428 256,-428"/>
<text text-anchor="start" x="265.5" y="-434.8" font-family="Times,serif" font-size="14.00"> </text>
<polygon fill="none" stroke="black" points="280,-428 280,-449 416,-449 416,-428 280,-428"/>
<text text-anchor="start" x="307.5" y="-434.8" font-family="Times,serif" font-size="14.00">description</text>
<polygon fill="none" stroke="black" points="256,-407 256,-428 280,-428 280,-407 256,-407"/>
<text text-anchor="start" x="265.5" y="-413.8" font-family="Times,serif" font-size="14.00"> </text>
<polygon fill="none" stroke="black" points="280,-407 280,-428 416,-428 416,-407 280,-407"/>
<text text-anchor="start" x="299.5" y="-413.8" font-family="Times,serif" font-size="14.00">creation_date</text>
<polygon fill="none" stroke="black" points="256,-386 256,-407 280,-407 280,-386 256,-386"/>
<text text-anchor="start" x="265.5" y="-392.8" font-family="Times,serif" font-size="14.00"> </text>
<polygon fill="none" stroke="black" points="280,-386 280,-407 416,-407 416,-386 280,-386"/>
<text text-anchor="start" x="283" y="-392.8" font-family="Times,serif" font-size="14.00">last_updated_date</text>
</g>
<!-- exercise_group_member -->
<g id="node5" class="node">
<title>exercise_group_member</title>
<polygon fill="none" stroke="black" points="8,-366 8,-387 204,-387 204,-366 8,-366"/>
<text text-anchor="start" x="11" y="-373.8" font-family="Times,serif" font-weight="bold" font-size="14.00">exercise_group_member</text>
<polygon fill="none" stroke="black" points="8,-345 8,-366 75,-366 75,-345 8,-345"/>
<text text-anchor="start" x="32.5" y="-351.8" font-family="Times,serif" font-size="14.00">🔑</text>
<polygon fill="none" stroke="black" points="75,-345 75,-366 204,-366 204,-345 75,-345"/>
<text text-anchor="start" x="132.5" y="-351.8" font-family="Times,serif" font-size="14.00">id</text>
<polygon fill="none" stroke="black" points="8,-324 8,-345 75,-345 75,-324 8,-324"/>
<text text-anchor="start" x="39" y="-330.8" font-family="Times,serif" font-size="14.00"> </text>
<polygon fill="none" stroke="black" points="75,-324 75,-345 204,-345 204,-324 75,-324"/>
<text text-anchor="start" x="99.5" y="-330.8" font-family="Times,serif" font-size="14.00">exercise_id</text>
<polygon fill="none" stroke="black" points="8,-303 8,-324 75,-324 75,-303 8,-303"/>
<text text-anchor="start" x="39" y="-309.8" font-family="Times,serif" font-size="14.00"> </text>
<polygon fill="none" stroke="black" points="75,-303 75,-324 204,-324 204,-303 75,-303"/>
<text text-anchor="start" x="108" y="-309.8" font-family="Times,serif" font-size="14.00">group_id</text>
</g>
<!-- exercise_group_member&#45;&gt;exercise -->
<g id="edge7" class="edge">
<title>exercise_group_member:e&#45;&gt;exercise:w</title>
<path fill="none" stroke="black" d="M205,-334C223.49,-334 230.33,-330.57 244.82,-329.39"/>
<polygon fill="black" stroke="black" points="245.14,-332.88 255,-329 244.87,-325.89 245.14,-332.88"/>
</g>
<!-- exercise_group_member&#45;&gt;exercise_group -->
<g id="edge6" class="edge">
<title>exercise_group_member:e&#45;&gt;exercise_group:w</title>
<path fill="none" stroke="black" d="M205,-313C279.1,-313 186.99,-464.99 244.86,-479.84"/>
<polygon fill="black" stroke="black" points="244.67,-483.34 255,-481 245.46,-476.38 244.67,-483.34"/>
</g>
<!-- plan -->
<g id="node6" class="node">
<title>plan</title>
<polygon fill="none" stroke="black" points="256,-664 256,-685 416,-685 416,-664 256,-664"/>
<text text-anchor="start" x="318.5" y="-671.8" font-family="Times,serif" font-weight="bold" font-size="14.00">plan</text>
<polygon fill="none" stroke="black" points="256,-643 256,-664 280,-664 280,-643 256,-643"/>
<text text-anchor="start" x="259" y="-649.8" font-family="Times,serif" font-size="14.00">🔑</text>
<polygon fill="none" stroke="black" points="280,-643 280,-664 416,-664 416,-643 280,-643"/>
<text text-anchor="start" x="341" y="-649.8" font-family="Times,serif" font-size="14.00">id</text>
<polygon fill="none" stroke="black" points="256,-622 256,-643 280,-643 280,-622 256,-622"/>
<text text-anchor="start" x="265.5" y="-628.8" font-family="Times,serif" font-size="14.00"> </text>
<polygon fill="none" stroke="black" points="280,-622 280,-643 416,-643 416,-622 280,-622"/>
<text text-anchor="start" x="315.5" y="-628.8" font-family="Times,serif" font-size="14.00">owner_id</text>
<polygon fill="none" stroke="black" points="256,-601 256,-622 280,-622 280,-601 256,-601"/>
<text text-anchor="start" x="265.5" y="-607.8" font-family="Times,serif" font-size="14.00"> </text>
<polygon fill="none" stroke="black" points="280,-601 280,-622 416,-622 416,-601 280,-601"/>
<text text-anchor="start" x="328" y="-607.8" font-family="Times,serif" font-size="14.00">name</text>
<polygon fill="none" stroke="black" points="256,-580 256,-601 280,-601 280,-580 256,-580"/>
<text text-anchor="start" x="265.5" y="-586.8" font-family="Times,serif" font-size="14.00"> </text>
<polygon fill="none" stroke="black" points="280,-580 280,-601 416,-601 416,-580 280,-580"/>
<text text-anchor="start" x="307.5" y="-586.8" font-family="Times,serif" font-size="14.00">description</text>
<polygon fill="none" stroke="black" points="256,-559 256,-580 280,-580 280,-559 256,-559"/>
<text text-anchor="start" x="265.5" y="-565.8" font-family="Times,serif" font-size="14.00"> </text>
<polygon fill="none" stroke="black" points="280,-559 280,-580 416,-580 416,-559 280,-559"/>
<text text-anchor="start" x="299.5" y="-565.8" font-family="Times,serif" font-size="14.00">creation_date</text>
<polygon fill="none" stroke="black" points="256,-538 256,-559 280,-559 280,-538 256,-538"/>
<text text-anchor="start" x="265.5" y="-544.8" font-family="Times,serif" font-size="14.00"> </text>
<polygon fill="none" stroke="black" points="280,-538 280,-559 416,-559 416,-538 280,-538"/>
<text text-anchor="start" x="283" y="-544.8" font-family="Times,serif" font-size="14.00">last_updated_date</text>
</g>
<!-- plan&#45;&gt;user -->
<g id="edge8" class="edge">
<title>plan:e&#45;&gt;user:w</title>
<path fill="none" stroke="black" d="M417,-633C496.3,-633 394,-797.19 456.98,-811.94"/>
<polygon fill="black" stroke="black" points="456.69,-815.43 467,-813 457.42,-808.47 456.69,-815.43"/>
</g>
<!-- plan_exercise_group -->
<g id="node7" class="node">
<title>plan_exercise_group</title>
<polygon fill="none" stroke="black" points="23,-581 23,-602 189,-602 189,-581 23,-581"/>
<text text-anchor="start" x="26" y="-588.8" font-family="Times,serif" font-weight="bold" font-size="14.00">plan_exercise_group</text>
<polygon fill="none" stroke="black" points="23,-560 23,-581 50,-581 50,-560 23,-560"/>
<text text-anchor="start" x="27.5" y="-566.8" font-family="Times,serif" font-size="14.00">🔑</text>
<polygon fill="none" stroke="black" points="50,-560 50,-581 189,-581 189,-560 50,-560"/>
<text text-anchor="start" x="112.5" y="-566.8" font-family="Times,serif" font-size="14.00">id</text>
<polygon fill="none" stroke="black" points="23,-539 23,-560 50,-560 50,-539 23,-539"/>
<text text-anchor="start" x="34" y="-545.8" font-family="Times,serif" font-size="14.00"> </text>
<polygon fill="none" stroke="black" points="50,-539 50,-560 189,-560 189,-539 50,-539"/>
<text text-anchor="start" x="93.5" y="-545.8" font-family="Times,serif" font-size="14.00">plan_id</text>
<polygon fill="none" stroke="black" points="23,-518 23,-539 50,-539 50,-518 23,-518"/>
<text text-anchor="start" x="34" y="-524.8" font-family="Times,serif" font-size="14.00"> </text>
<polygon fill="none" stroke="black" points="50,-518 50,-539 189,-539 189,-518 50,-518"/>
<text text-anchor="start" x="55" y="-524.8" font-family="Times,serif" font-size="14.00">exercise_group_id</text>
<polygon fill="none" stroke="black" points="23,-497 23,-518 50,-518 50,-497 23,-497"/>
<text text-anchor="start" x="34" y="-503.8" font-family="Times,serif" font-size="14.00"> </text>
<polygon fill="none" stroke="black" points="50,-497 50,-518 189,-518 189,-497 50,-497"/>
<text text-anchor="start" x="99.5" y="-503.8" font-family="Times,serif" font-size="14.00">notes</text>
<polygon fill="none" stroke="black" points="23,-476 23,-497 50,-497 50,-476 23,-476"/>
<text text-anchor="start" x="34" y="-482.8" font-family="Times,serif" font-size="14.00"> </text>
<polygon fill="none" stroke="black" points="50,-476 50,-497 189,-497 189,-476 50,-476"/>
<text text-anchor="start" x="98" y="-482.8" font-family="Times,serif" font-size="14.00">config</text>
<polygon fill="none" stroke="black" points="23,-455 23,-476 50,-476 50,-455 23,-455"/>
<text text-anchor="start" x="34" y="-461.8" font-family="Times,serif" font-size="14.00"> </text>
<polygon fill="none" stroke="black" points="50,-455 50,-476 189,-476 189,-455 50,-455"/>
<text text-anchor="start" x="71" y="-461.8" font-family="Times,serif" font-size="14.00">creation_date</text>
<polygon fill="none" stroke="black" points="23,-434 23,-455 50,-455 50,-434 23,-434"/>
<text text-anchor="start" x="34" y="-440.8" font-family="Times,serif" font-size="14.00"> </text>
<polygon fill="none" stroke="black" points="50,-434 50,-455 189,-455 189,-434 50,-434"/>
<text text-anchor="start" x="54.5" y="-440.8" font-family="Times,serif" font-size="14.00">last_updated_date</text>
</g>
<!-- plan_exercise_group&#45;&gt;exercise_group -->
<g id="edge1" class="edge">
<title>plan_exercise_group:e&#45;&gt;exercise_group:w</title>
<path fill="none" stroke="black" d="M190,-529C222.12,-529 220.05,-490.59 244.96,-482.49"/>
<polygon fill="black" stroke="black" points="245.62,-485.93 255,-481 244.59,-479.01 245.62,-485.93"/>
</g>
<!-- plan_exercise_group&#45;&gt;plan -->
<g id="edge2" class="edge">
<title>plan_exercise_group:e&#45;&gt;plan:w</title>
<path fill="none" stroke="black" d="M190,-550C240.67,-550 206.2,-639.89 244.9,-652.53"/>
<polygon fill="black" stroke="black" points="244.6,-656.02 255,-654 245.61,-649.1 244.6,-656.02"/>
</g>
<!-- plan_instance -->
<g id="node8" class="node">
<title>plan_instance</title>
<polygon fill="none" stroke="black" points="26,-765 26,-786 186,-786 186,-765 26,-765"/>
<text text-anchor="start" x="51.5" y="-772.8" font-family="Times,serif" font-weight="bold" font-size="14.00">plan_instance</text>
<polygon fill="none" stroke="black" points="26,-744 26,-765 50,-765 50,-744 26,-744"/>
<text text-anchor="start" x="29" y="-750.8" font-family="Times,serif" font-size="14.00">🔑</text>
<polygon fill="none" stroke="black" points="50,-744 50,-765 186,-765 186,-744 50,-744"/>
<text text-anchor="start" x="111" y="-750.8" font-family="Times,serif" font-size="14.00">id</text>
<polygon fill="none" stroke="black" points="26,-723 26,-744 50,-744 50,-723 26,-723"/>
<text text-anchor="start" x="35.5" y="-729.8" font-family="Times,serif" font-size="14.00"> </text>
<polygon fill="none" stroke="black" points="50,-723 50,-744 186,-744 186,-723 50,-723"/>
<text text-anchor="start" x="92" y="-729.8" font-family="Times,serif" font-size="14.00">plan_id</text>
<polygon fill="none" stroke="black" points="26,-702 26,-723 50,-723 50,-702 26,-702"/>
<text text-anchor="start" x="35.5" y="-708.8" font-family="Times,serif" font-size="14.00"> </text>
<polygon fill="none" stroke="black" points="50,-702 50,-723 186,-723 186,-702 50,-702"/>
<text text-anchor="start" x="92" y="-708.8" font-family="Times,serif" font-size="14.00">user_id</text>
<polygon fill="none" stroke="black" points="26,-681 26,-702 50,-702 50,-681 26,-681"/>
<text text-anchor="start" x="35.5" y="-687.8" font-family="Times,serif" font-size="14.00"> </text>
<polygon fill="none" stroke="black" points="50,-681 50,-702 186,-702 186,-681 50,-681"/>
<text text-anchor="start" x="81.5" y="-687.8" font-family="Times,serif" font-size="14.00">start_date</text>
<polygon fill="none" stroke="black" points="26,-660 26,-681 50,-681 50,-660 26,-660"/>
<text text-anchor="start" x="35.5" y="-666.8" font-family="Times,serif" font-size="14.00"> </text>
<polygon fill="none" stroke="black" points="50,-660 50,-681 186,-681 186,-660 50,-660"/>
<text text-anchor="start" x="69.5" y="-666.8" font-family="Times,serif" font-size="14.00">creation_date</text>
<polygon fill="none" stroke="black" points="26,-639 26,-660 50,-660 50,-639 26,-639"/>
<text text-anchor="start" x="35.5" y="-645.8" font-family="Times,serif" font-size="14.00"> </text>
<polygon fill="none" stroke="black" points="50,-639 50,-660 186,-660 186,-639 50,-639"/>
<text text-anchor="start" x="53" y="-645.8" font-family="Times,serif" font-size="14.00">last_updated_date</text>
</g>
<!-- plan_instance&#45;&gt;plan -->
<g id="edge11" class="edge">
<title>plan_instance:e&#45;&gt;plan:w</title>
<path fill="none" stroke="black" d="M187,-734C229.84,-734 212.01,-666.59 244.89,-655.53"/>
<polygon fill="black" stroke="black" points="245.63,-658.95 255,-654 244.59,-652.03 245.63,-658.95"/>
</g>
<!-- plan_instance&#45;&gt;user -->
<g id="edge10" class="edge">
<title>plan_instance:e&#45;&gt;user:w</title>
<path fill="none" stroke="black" d="M187,-712C292.92,-712 335.43,-678.91 424,-737 453.16,-756.12 433.3,-802.23 457.12,-811.4"/>
<polygon fill="black" stroke="black" points="456.57,-814.86 467,-813 457.69,-807.95 456.57,-814.86"/>
</g>
<!-- session -->
<g id="node9" class="node">
<title>session</title>
<polygon fill="none" stroke="black" points="256,-187 256,-208 416,-208 416,-187 256,-187"/>
<text text-anchor="start" x="306.5" y="-194.8" font-family="Times,serif" font-weight="bold" font-size="14.00">session</text>
<polygon fill="none" stroke="black" points="256,-166 256,-187 280,-187 280,-166 256,-166"/>
<text text-anchor="start" x="259" y="-172.8" font-family="Times,serif" font-size="14.00">🔑</text>
<polygon fill="none" stroke="black" points="280,-166 280,-187 416,-187 416,-166 280,-166"/>
<text text-anchor="start" x="341" y="-172.8" font-family="Times,serif" font-size="14.00">id</text>
<polygon fill="none" stroke="black" points="256,-145 256,-166 280,-166 280,-145 256,-145"/>
<text text-anchor="start" x="265.5" y="-151.8" font-family="Times,serif" font-size="14.00"> </text>
<polygon fill="none" stroke="black" points="280,-145 280,-166 416,-166 416,-145 280,-145"/>
<text text-anchor="start" x="299.5" y="-151.8" font-family="Times,serif" font-size="14.00">creation_date</text>
<polygon fill="none" stroke="black" points="256,-124 256,-145 280,-145 280,-124 256,-124"/>
<text text-anchor="start" x="265.5" y="-130.8" font-family="Times,serif" font-size="14.00"> </text>
<polygon fill="none" stroke="black" points="280,-124 280,-145 416,-145 416,-124 280,-124"/>
<text text-anchor="start" x="283" y="-130.8" font-family="Times,serif" font-size="14.00">last_updated_date</text>
</g>
<!-- session_exercise -->
<g id="node10" class="node">
<title>session_exercise</title>
<polygon fill="none" stroke="black" points="26,-240 26,-261 186,-261 186,-240 26,-240"/>
<text text-anchor="start" x="41" y="-247.8" font-family="Times,serif" font-weight="bold" font-size="14.00">session_exercise</text>
<polygon fill="none" stroke="black" points="26,-219 26,-240 50,-240 50,-219 26,-219"/>
<text text-anchor="start" x="29" y="-225.8" font-family="Times,serif" font-size="14.00">🔑</text>
<polygon fill="none" stroke="black" points="50,-219 50,-240 186,-240 186,-219 50,-219"/>
<text text-anchor="start" x="111" y="-225.8" font-family="Times,serif" font-size="14.00">id</text>
<polygon fill="none" stroke="black" points="26,-198 26,-219 50,-219 50,-198 26,-198"/>
<text text-anchor="start" x="35.5" y="-204.8" font-family="Times,serif" font-size="14.00"> </text>
<polygon fill="none" stroke="black" points="50,-198 50,-219 186,-219 186,-198 50,-198"/>
<text text-anchor="start" x="78" y="-204.8" font-family="Times,serif" font-size="14.00">exercise_id</text>
<polygon fill="none" stroke="black" points="26,-177 26,-198 50,-198 50,-177 26,-177"/>
<text text-anchor="start" x="35.5" y="-183.8" font-family="Times,serif" font-size="14.00"> </text>
<polygon fill="none" stroke="black" points="50,-177 50,-198 186,-198 186,-177 50,-177"/>
<text text-anchor="start" x="81.5" y="-183.8" font-family="Times,serif" font-size="14.00">session_id</text>
<polygon fill="none" stroke="black" points="26,-156 26,-177 50,-177 50,-156 26,-156"/>
<text text-anchor="start" x="35.5" y="-162.8" font-family="Times,serif" font-size="14.00"> </text>
<polygon fill="none" stroke="black" points="50,-156 50,-177 186,-177 186,-156 50,-156"/>
<text text-anchor="start" x="103" y="-162.8" font-family="Times,serif" font-size="14.00">sets</text>
<polygon fill="none" stroke="black" points="26,-135 26,-156 50,-156 50,-135 26,-135"/>
<text text-anchor="start" x="35.5" y="-141.8" font-family="Times,serif" font-size="14.00"> </text>
<polygon fill="none" stroke="black" points="50,-135 50,-156 186,-156 186,-135 50,-135"/>
<text text-anchor="start" x="69.5" y="-141.8" font-family="Times,serif" font-size="14.00">creation_date</text>
<polygon fill="none" stroke="black" points="26,-114 26,-135 50,-135 50,-114 26,-114"/>
<text text-anchor="start" x="35.5" y="-120.8" font-family="Times,serif" font-size="14.00"> </text>
<polygon fill="none" stroke="black" points="50,-114 50,-135 186,-135 186,-114 50,-114"/>
<text text-anchor="start" x="53" y="-120.8" font-family="Times,serif" font-size="14.00">last_updated_date</text>
</g>
<!-- session_exercise&#45;&gt;exercise -->
<g id="edge5" class="edge">
<title>session_exercise:e&#45;&gt;exercise:w</title>
<path fill="none" stroke="black" d="M187,-209C244.47,-209 200.07,-314.47 244.81,-327.65"/>
<polygon fill="black" stroke="black" points="244.63,-331.16 255,-329 245.55,-324.22 244.63,-331.16"/>
</g>
<!-- session_exercise&#45;&gt;session -->
<g id="edge4" class="edge">
<title>session_exercise:e&#45;&gt;session:w</title>
<path fill="none" stroke="black" d="M187,-187C213.85,-187 222.43,-179.28 244.86,-177.4"/>
<polygon fill="black" stroke="black" points="245.15,-180.9 255,-177 244.87,-173.9 245.15,-180.9"/>
</g>
<!-- temporary_login -->
<g id="node11" class="node">
<title>temporary_login</title>
<polygon fill="none" stroke="black" points="269,-1070 269,-1091 404,-1091 404,-1070 269,-1070"/>
<text text-anchor="start" x="272" y="-1077.8" font-family="Times,serif" font-weight="bold" font-size="14.00">temporary_login</text>
<polygon fill="none" stroke="black" points="269,-1049 269,-1070 303,-1070 303,-1049 269,-1049"/>
<text text-anchor="start" x="277" y="-1055.8" font-family="Times,serif" font-size="14.00">🔑</text>
<polygon fill="none" stroke="black" points="303,-1049 303,-1070 404,-1070 404,-1049 303,-1049"/>
<text text-anchor="start" x="346.5" y="-1055.8" font-family="Times,serif" font-size="14.00">id</text>
<polygon fill="none" stroke="black" points="269,-1028 269,-1049 303,-1049 303,-1028 269,-1028"/>
<text text-anchor="start" x="283.5" y="-1034.8" font-family="Times,serif" font-size="14.00"> </text>
<polygon fill="none" stroke="black" points="303,-1028 303,-1049 404,-1049 404,-1028 303,-1028"/>
<text text-anchor="start" x="327.5" y="-1034.8" font-family="Times,serif" font-size="14.00">user_id</text>
<polygon fill="none" stroke="black" points="269,-1007 269,-1028 303,-1028 303,-1007 269,-1007"/>
<text text-anchor="start" x="283.5" y="-1013.8" font-family="Times,serif" font-size="14.00"> </text>
<polygon fill="none" stroke="black" points="303,-1007 303,-1028 404,-1028 404,-1007 303,-1007"/>
<text text-anchor="start" x="311.5" y="-1013.8" font-family="Times,serif" font-size="14.00">expiry_date</text>
<polygon fill="none" stroke="black" points="269,-986 269,-1007 303,-1007 303,-986 269,-986"/>
<text text-anchor="start" x="283.5" y="-992.8" font-family="Times,serif" font-size="14.00"> </text>
<polygon fill="none" stroke="black" points="303,-986 303,-1007 404,-1007 404,-986 303,-986"/>
<text text-anchor="start" x="343" y="-992.8" font-family="Times,serif" font-size="14.00">url</text>
</g>
<!-- temporary_login&#45;&gt;user -->
<g id="edge3" class="edge">
<title>temporary_login:e&#45;&gt;user:w</title>
<path fill="none" stroke="black" d="M405,-1038C505.08,-1038 373.19,-828.54 456.96,-813.81"/>
<polygon fill="black" stroke="black" points="457.32,-817.3 467,-813 456.75,-810.32 457.32,-817.3"/>
</g>
</g>
</svg>
