<?xml version="1.0" encoding="UTF-8" standalone="no"?>
<!DOCTYPE svg PUBLIC "-//W3C//DTD SVG 1.1//EN"
 "http://www.w3.org/Graphics/SVG/1.1/DTD/svg11.dtd">
<!-- Generated by graphviz version 2.43.0 (0)
 -->
<!-- Title: structs Pages: 1 -->
<svg width="1068pt" height="713pt"
 viewBox="0.00 0.00 1068.00 713.00" xmlns="http://www.w3.org/2000/svg" xmlns:xlink="http://www.w3.org/1999/xlink">
<g id="graph0" class="graph" transform="scale(1 1) rotate(0) translate(4 709)">
<title>structs</title>
<polygon fill="white" stroke="transparent" points="-4,4 -4,-709 1064,-709 1064,4 -4,4"/>
<!-- __tower_sessions -->
<g id="node1" class="node">
<title>__tower_sessions</title>
<polygon fill="none" stroke="black" points="37,-67 37,-88 175,-88 175,-67 37,-67"/>
<text text-anchor="start" x="40" y="-74.8" font-family="Times,serif" font-weight="bold" font-size="14.00">__tower_sessions</text>
<polygon fill="none" stroke="black" points="37,-46 37,-67 73,-67 73,-46 37,-46"/>
<text text-anchor="start" x="46" y="-52.8" font-family="Times,serif" font-size="14.00">🔑</text>
<polygon fill="none" stroke="black" points="73,-46 73,-67 175,-67 175,-46 73,-46"/>
<text text-anchor="start" x="117" y="-52.8" font-family="Times,serif" font-size="14.00">id</text>
<polygon fill="none" stroke="black" points="37,-25 37,-46 73,-46 73,-25 37,-25"/>
<text text-anchor="start" x="52.5" y="-31.8" font-family="Times,serif" font-size="14.00"> </text>
<polygon fill="none" stroke="black" points="73,-25 73,-46 175,-46 175,-25 73,-25"/>
<text text-anchor="start" x="108" y="-31.8" font-family="Times,serif" font-size="14.00">data</text>
<polygon fill="none" stroke="black" points="37,-4 37,-25 73,-25 73,-4 37,-4"/>
<text text-anchor="start" x="52.5" y="-10.8" font-family="Times,serif" font-size="14.00"> </text>
<polygon fill="none" stroke="black" points="73,-4 73,-25 175,-25 175,-4 73,-4"/>
<text text-anchor="start" x="82" y="-10.8" font-family="Times,serif" font-size="14.00">expiry_date</text>
</g>
<!-- credential -->
<g id="node2" class="node">
<title>credential</title>
<polygon fill="none" stroke="black" points="680,-680 680,-701 840,-701 840,-680 680,-680"/>
<text text-anchor="start" x="719.5" y="-687.8" font-family="Times,serif" font-weight="bold" font-size="14.00">credential</text>
<polygon fill="none" stroke="black" points="680,-659 680,-680 704,-680 704,-659 680,-659"/>
<text text-anchor="start" x="683" y="-665.8" font-family="Times,serif" font-size="14.00">🔑</text>
<polygon fill="none" stroke="black" points="704,-659 704,-680 840,-680 840,-659 704,-659"/>
<text text-anchor="start" x="765" y="-665.8" font-family="Times,serif" font-size="14.00">id</text>
<polygon fill="none" stroke="black" points="680,-638 680,-659 704,-659 704,-638 680,-638"/>
<text text-anchor="start" x="689.5" y="-644.8" font-family="Times,serif" font-size="14.00"> </text>
<polygon fill="none" stroke="black" points="704,-638 704,-659 840,-659 840,-638 704,-638"/>
<text text-anchor="start" x="746" y="-644.8" font-family="Times,serif" font-size="14.00">user_id</text>
<polygon fill="none" stroke="black" points="680,-617 680,-638 704,-638 704,-617 680,-617"/>
<text text-anchor="start" x="689.5" y="-623.8" font-family="Times,serif" font-size="14.00"> </text>
<polygon fill="none" stroke="black" points="704,-617 704,-638 840,-638 840,-617 704,-617"/>
<text text-anchor="start" x="743" y="-623.8" font-family="Times,serif" font-size="14.00">passkey</text>
<polygon fill="none" stroke="black" points="680,-596 680,-617 704,-617 704,-596 680,-596"/>
<text text-anchor="start" x="689.5" y="-602.8" font-family="Times,serif" font-size="14.00"> </text>
<polygon fill="none" stroke="black" points="704,-596 704,-617 840,-617 840,-596 704,-596"/>
<text text-anchor="start" x="744.5" y="-602.8" font-family="Times,serif" font-size="14.00">counter</text>
<polygon fill="none" stroke="black" points="680,-575 680,-596 704,-596 704,-575 680,-575"/>
<text text-anchor="start" x="689.5" y="-581.8" font-family="Times,serif" font-size="14.00"> </text>
<polygon fill="none" stroke="black" points="704,-575 704,-596 840,-596 840,-575 704,-575"/>
<text text-anchor="start" x="716.5" y="-581.8" font-family="Times,serif" font-size="14.00">backup_eligible</text>
<polygon fill="none" stroke="black" points="680,-554 680,-575 704,-575 704,-554 680,-554"/>
<text text-anchor="start" x="689.5" y="-560.8" font-family="Times,serif" font-size="14.00"> </text>
<polygon fill="none" stroke="black" points="704,-554 704,-575 840,-575 840,-554 704,-554"/>
<text text-anchor="start" x="725" y="-560.8" font-family="Times,serif" font-size="14.00">backup_state</text>
<polygon fill="none" stroke="black" points="680,-533 680,-554 704,-554 704,-533 680,-533"/>
<text text-anchor="start" x="689.5" y="-539.8" font-family="Times,serif" font-size="14.00"> </text>
<polygon fill="none" stroke="black" points="704,-533 704,-554 840,-554 840,-533 704,-533"/>
<text text-anchor="start" x="723.5" y="-539.8" font-family="Times,serif" font-size="14.00">creation_date</text>
<polygon fill="none" stroke="black" points="680,-512 680,-533 704,-533 704,-512 680,-512"/>
<text text-anchor="start" x="689.5" y="-518.8" font-family="Times,serif" font-size="14.00"> </text>
<polygon fill="none" stroke="black" points="704,-512 704,-533 840,-533 840,-512 704,-512"/>
<text text-anchor="start" x="707" y="-518.8" font-family="Times,serif" font-size="14.00">last_updated_date</text>
<polygon fill="none" stroke="black" points="680,-491 680,-512 704,-512 704,-491 680,-491"/>
<text text-anchor="start" x="689.5" y="-497.8" font-family="Times,serif" font-size="14.00"> </text>
<polygon fill="none" stroke="black" points="704,-491 704,-512 840,-512 840,-491 704,-491"/>
<text text-anchor="start" x="719" y="-497.8" font-family="Times,serif" font-size="14.00">last_used_date</text>
</g>
<!-- user -->
<g id="node12" class="node">
<title>user</title>
<polygon fill="none" stroke="black" points="892,-349 892,-370 1052,-370 1052,-349 892,-349"/>
<text text-anchor="start" x="954" y="-356.8" font-family="Times,serif" font-weight="bold" font-size="14.00">user</text>
<polygon fill="none" stroke="black" points="892,-328 892,-349 916,-349 916,-328 892,-328"/>
<text text-anchor="start" x="895" y="-334.8" font-family="Times,serif" font-size="14.00">🔑</text>
<polygon fill="none" stroke="black" points="916,-328 916,-349 1052,-349 1052,-328 916,-328"/>
<text text-anchor="start" x="977" y="-334.8" font-family="Times,serif" font-size="14.00">id</text>
<polygon fill="none" stroke="black" points="892,-307 892,-328 916,-328 916,-307 892,-307"/>
<text text-anchor="start" x="901.5" y="-313.8" font-family="Times,serif" font-size="14.00"> </text>
<polygon fill="none" stroke="black" points="916,-307 916,-328 1052,-328 1052,-307 916,-307"/>
<text text-anchor="start" x="948.5" y="-313.8" font-family="Times,serif" font-size="14.00">username</text>
<polygon fill="none" stroke="black" points="892,-286 892,-307 916,-307 916,-286 892,-286"/>
<text text-anchor="start" x="901.5" y="-292.8" font-family="Times,serif" font-size="14.00"> </text>
<polygon fill="none" stroke="black" points="916,-286 916,-307 1052,-307 1052,-286 916,-286"/>
<text text-anchor="start" x="964" y="-292.8" font-family="Times,serif" font-size="14.00">email</text>
<polygon fill="none" stroke="black" points="892,-265 892,-286 916,-286 916,-265 892,-265"/>
<text text-anchor="start" x="901.5" y="-271.8" font-family="Times,serif" font-size="14.00"> </text>
<polygon fill="none" stroke="black" points="916,-265 916,-286 1052,-286 1052,-265 916,-265"/>
<text text-anchor="start" x="935.5" y="-271.8" font-family="Times,serif" font-size="14.00">display_name</text>
<polygon fill="none" stroke="black" points="892,-244 892,-265 916,-265 916,-244 892,-244"/>
<text text-anchor="start" x="901.5" y="-250.8" font-family="Times,serif" font-size="14.00"> </text>
<polygon fill="none" stroke="black" points="916,-244 916,-265 1052,-265 1052,-244 916,-244"/>
<text text-anchor="start" x="935.5" y="-250.8" font-family="Times,serif" font-size="14.00">creation_date</text>
<polygon fill="none" stroke="black" points="892,-223 892,-244 916,-244 916,-223 892,-223"/>
<text text-anchor="start" x="901.5" y="-229.8" font-family="Times,serif" font-size="14.00"> </text>
<polygon fill="none" stroke="black" points="916,-223 916,-244 1052,-244 1052,-223 916,-223"/>
<text text-anchor="start" x="919" y="-229.8" font-family="Times,serif" font-size="14.00">last_updated_date</text>
<polygon fill="none" stroke="black" points="892,-202 892,-223 916,-223 916,-202 892,-202"/>
<text text-anchor="start" x="901.5" y="-208.8" font-family="Times,serif" font-size="14.00"> </text>
<polygon fill="none" stroke="black" points="916,-202 916,-223 1052,-223 1052,-202 916,-202"/>
<text text-anchor="start" x="930.5" y="-208.8" font-family="Times,serif" font-size="14.00">last_login_date</text>
</g>
<!-- credential&#45;&gt;user -->
<g id="edge10" class="edge">
<title>credential:e&#45;&gt;user:w</title>
<path fill="none" stroke="black" d="M841,-649C907.1,-649 830.22,-370.83 881.24,-341.5"/>
<polygon fill="black" stroke="black" points="882.18,-344.87 891,-339 880.44,-338.09 882.18,-344.87"/>
</g>
<!-- exercise -->
<g id="node3" class="node">
<title>exercise</title>
<polygon fill="none" stroke="black" points="256,-361 256,-382 416,-382 416,-361 256,-361"/>
<text text-anchor="start" x="303.5" y="-368.8" font-family="Times,serif" font-weight="bold" font-size="14.00">exercise</text>
<polygon fill="none" stroke="black" points="256,-340 256,-361 280,-361 280,-340 256,-340"/>
<text text-anchor="start" x="259" y="-346.8" font-family="Times,serif" font-size="14.00">🔑</text>
<polygon fill="none" stroke="black" points="280,-340 280,-361 416,-361 416,-340 280,-340"/>
<text text-anchor="start" x="341" y="-346.8" font-family="Times,serif" font-size="14.00">id</text>
<polygon fill="none" stroke="black" points="256,-319 256,-340 280,-340 280,-319 256,-319"/>
<text text-anchor="start" x="265.5" y="-325.8" font-family="Times,serif" font-size="14.00"> </text>
<polygon fill="none" stroke="black" points="280,-319 280,-340 416,-340 416,-319 280,-319"/>
<text text-anchor="start" x="328" y="-325.8" font-family="Times,serif" font-size="14.00">name</text>
<polygon fill="none" stroke="black" points="256,-298 256,-319 280,-319 280,-298 256,-298"/>
<text text-anchor="start" x="265.5" y="-304.8" font-family="Times,serif" font-size="14.00"> </text>
<polygon fill="none" stroke="black" points="280,-298 280,-319 416,-319 416,-298 280,-298"/>
<text text-anchor="start" x="307.5" y="-304.8" font-family="Times,serif" font-size="14.00">description</text>
<polygon fill="none" stroke="black" points="256,-277 256,-298 280,-298 280,-277 256,-277"/>
<text text-anchor="start" x="265.5" y="-283.8" font-family="Times,serif" font-size="14.00"> </text>
<polygon fill="none" stroke="black" points="280,-277 280,-298 416,-298 416,-277 280,-277"/>
<text text-anchor="start" x="299.5" y="-283.8" font-family="Times,serif" font-size="14.00">creation_date</text>
<polygon fill="none" stroke="black" points="256,-256 256,-277 280,-277 280,-256 256,-256"/>
<text text-anchor="start" x="265.5" y="-262.8" font-family="Times,serif" font-size="14.00"> </text>
<polygon fill="none" stroke="black" points="280,-256 280,-277 416,-277 416,-256 280,-256"/>
<text text-anchor="start" x="283" y="-262.8" font-family="Times,serif" font-size="14.00">last_updated_date</text>
</g>
<!-- exercise_group -->
<g id="node4" class="node">
<title>exercise_group</title>
<polygon fill="none" stroke="black" points="256,-513 256,-534 416,-534 416,-513 256,-513"/>
<text text-anchor="start" x="277" y="-520.8" font-family="Times,serif" font-weight="bold" font-size="14.00">exercise_group</text>
<polygon fill="none" stroke="black" points="256,-492 256,-513 280,-513 280,-492 256,-492"/>
<text text-anchor="start" x="259" y="-498.8" font-family="Times,serif" font-size="14.00">🔑</text>
<polygon fill="none" stroke="black" points="280,-492 280,-513 416,-513 416,-492 280,-492"/>
<text text-anchor="start" x="341" y="-498.8" font-family="Times,serif" font-size="14.00">id</text>
<polygon fill="none" stroke="black" points="256,-471 256,-492 280,-492 280,-471 256,-471"/>
<text text-anchor="start" x="265.5" y="-477.8" font-family="Times,serif" font-size="14.00"> </text>
<polygon fill="none" stroke="black" points="280,-471 280,-492 416,-492 416,-471 280,-471"/>
<text text-anchor="start" x="328" y="-477.8" font-family="Times,serif" font-size="14.00">name</text>
<polygon fill="none" stroke="black" points="256,-450 256,-471 280,-471 280,-450 256,-450"/>
<text text-anchor="start" x="265.5" y="-456.8" font-family="Times,serif" font-size="14.00"> </text>
<polygon fill="none" stroke="black" points="280,-450 280,-471 416,-471 416,-450 280,-450"/>
<text text-anchor="start" x="307.5" y="-456.8" font-family="Times,serif" font-size="14.00">description</text>
<polygon fill="none" stroke="black" points="256,-429 256,-450 280,-450 280,-429 256,-429"/>
<text text-anchor="start" x="265.5" y="-435.8" font-family="Times,serif" font-size="14.00"> </text>
<polygon fill="none" stroke="black" points="280,-429 280,-450 416,-450 416,-429 280,-429"/>
<text text-anchor="start" x="299.5" y="-435.8" font-family="Times,serif" font-size="14.00">creation_date</text>
<polygon fill="none" stroke="black" points="256,-408 256,-429 280,-429 280,-408 256,-408"/>
<text text-anchor="start" x="265.5" y="-414.8" font-family="Times,serif" font-size="14.00"> </text>
<polygon fill="none" stroke="black" points="280,-408 280,-429 416,-429 416,-408 280,-408"/>
<text text-anchor="start" x="283" y="-414.8" font-family="Times,serif" font-size="14.00">last_updated_date</text>
</g>
<!-- exercise_group_member -->
<g id="node5" class="node">
<title>exercise_group_member</title>
<polygon fill="none" stroke="black" points="8,-388 8,-409 204,-409 204,-388 8,-388"/>
<text text-anchor="start" x="11" y="-395.8" font-family="Times,serif" font-weight="bold" font-size="14.00">exercise_group_member</text>
<polygon fill="none" stroke="black" points="8,-367 8,-388 75,-388 75,-367 8,-367"/>
<text text-anchor="start" x="32.5" y="-373.8" font-family="Times,serif" font-size="14.00">🔑</text>
<polygon fill="none" stroke="black" points="75,-367 75,-388 204,-388 204,-367 75,-367"/>
<text text-anchor="start" x="132.5" y="-373.8" font-family="Times,serif" font-size="14.00">id</text>
<polygon fill="none" stroke="black" points="8,-346 8,-367 75,-367 75,-346 8,-346"/>
<text text-anchor="start" x="39" y="-352.8" font-family="Times,serif" font-size="14.00"> </text>
<polygon fill="none" stroke="black" points="75,-346 75,-367 204,-367 204,-346 75,-346"/>
<text text-anchor="start" x="99.5" y="-352.8" font-family="Times,serif" font-size="14.00">exercise_id</text>
<polygon fill="none" stroke="black" points="8,-325 8,-346 75,-346 75,-325 8,-325"/>
<text text-anchor="start" x="39" y="-331.8" font-family="Times,serif" font-size="14.00"> </text>
<polygon fill="none" stroke="black" points="75,-325 75,-346 204,-346 204,-325 75,-325"/>
<text text-anchor="start" x="108" y="-331.8" font-family="Times,serif" font-size="14.00">group_id</text>
</g>
<!-- exercise_group_member&#45;&gt;exercise -->
<g id="edge8" class="edge">
<title>exercise_group_member:e&#45;&gt;exercise:w</title>
<path fill="none" stroke="black" d="M205,-356C223.49,-356 230.33,-352.57 244.82,-351.39"/>
<polygon fill="black" stroke="black" points="245.14,-354.88 255,-351 244.87,-347.89 245.14,-354.88"/>
</g>
<!-- exercise_group_member&#45;&gt;exercise_group -->
<g id="edge7" class="edge">
<title>exercise_group_member:e&#45;&gt;exercise_group:w</title>
<path fill="none" stroke="black" d="M205,-335C279.1,-335 186.99,-486.99 244.86,-501.84"/>
<polygon fill="black" stroke="black" points="244.67,-505.34 255,-503 245.46,-498.38 244.67,-505.34"/>
</g>
<!-- plan -->
<g id="node6" class="node">
<title>plan</title>
<polygon fill="none" stroke="black" points="680,-444 680,-465 840,-465 840,-444 680,-444"/>
<text text-anchor="start" x="742.5" y="-451.8" font-family="Times,serif" font-weight="bold" font-size="14.00">plan</text>
<polygon fill="none" stroke="black" points="680,-423 680,-444 704,-444 704,-423 680,-423"/>
<text text-anchor="start" x="683" y="-429.8" font-family="Times,serif" font-size="14.00">🔑</text>
<polygon fill="none" stroke="black" points="704,-423 704,-444 840,-444 840,-423 704,-423"/>
<text text-anchor="start" x="765" y="-429.8" font-family="Times,serif" font-size="14.00">id</text>
<polygon fill="none" stroke="black" points="680,-402 680,-423 704,-423 704,-402 680,-402"/>
<text text-anchor="start" x="689.5" y="-408.8" font-family="Times,serif" font-size="14.00"> </text>
<polygon fill="none" stroke="black" points="704,-402 704,-423 840,-423 840,-402 704,-402"/>
<text text-anchor="start" x="739.5" y="-408.8" font-family="Times,serif" font-size="14.00">owner_id</text>
<polygon fill="none" stroke="black" points="680,-381 680,-402 704,-402 704,-381 680,-381"/>
<text text-anchor="start" x="689.5" y="-387.8" font-family="Times,serif" font-size="14.00"> </text>
<polygon fill="none" stroke="black" points="704,-381 704,-402 840,-402 840,-381 704,-381"/>
<text text-anchor="start" x="752" y="-387.8" font-family="Times,serif" font-size="14.00">name</text>
<polygon fill="none" stroke="black" points="680,-360 680,-381 704,-381 704,-360 680,-360"/>
<text text-anchor="start" x="689.5" y="-366.8" font-family="Times,serif" font-size="14.00"> </text>
<polygon fill="none" stroke="black" points="704,-360 704,-381 840,-381 840,-360 704,-360"/>
<text text-anchor="start" x="731.5" y="-366.8" font-family="Times,serif" font-size="14.00">description</text>
<polygon fill="none" stroke="black" points="680,-339 680,-360 704,-360 704,-339 680,-339"/>
<text text-anchor="start" x="689.5" y="-345.8" font-family="Times,serif" font-size="14.00"> </text>
<polygon fill="none" stroke="black" points="704,-339 704,-360 840,-360 840,-339 704,-339"/>
<text text-anchor="start" x="716" y="-345.8" font-family="Times,serif" font-size="14.00">duration_weeks</text>
<polygon fill="none" stroke="black" points="680,-318 680,-339 704,-339 704,-318 680,-318"/>
<text text-anchor="start" x="689.5" y="-324.8" font-family="Times,serif" font-size="14.00"> </text>
<polygon fill="none" stroke="black" points="704,-318 704,-339 840,-339 840,-318 704,-318"/>
<text text-anchor="start" x="723.5" y="-324.8" font-family="Times,serif" font-size="14.00">creation_date</text>
<polygon fill="none" stroke="black" points="680,-297 680,-318 704,-318 704,-297 680,-297"/>
<text text-anchor="start" x="689.5" y="-303.8" font-family="Times,serif" font-size="14.00"> </text>
<polygon fill="none" stroke="black" points="704,-297 704,-318 840,-318 840,-297 704,-297"/>
<text text-anchor="start" x="707" y="-303.8" font-family="Times,serif" font-size="14.00">last_updated_date</text>
</g>
<!-- plan&#45;&gt;user -->
<g id="edge9" class="edge">
<title>plan:e&#45;&gt;user:w</title>
<path fill="none" stroke="black" d="M841,-413C876.66,-413 856.56,-353.27 880.9,-341.13"/>
<polygon fill="black" stroke="black" points="881.94,-344.49 891,-339 880.49,-337.64 881.94,-344.49"/>
</g>
<!-- plan_exercise_group -->
<g id="node7" class="node">
<title>plan_exercise_group</title>
<polygon fill="none" stroke="black" points="23,-592 23,-613 189,-613 189,-592 23,-592"/>
<text text-anchor="start" x="26" y="-599.8" font-family="Times,serif" font-weight="bold" font-size="14.00">plan_exercise_group</text>
<polygon fill="none" stroke="black" points="23,-571 23,-592 50,-592 50,-571 23,-571"/>
<text text-anchor="start" x="27.5" y="-577.8" font-family="Times,serif" font-size="14.00">🔑</text>
<polygon fill="none" stroke="black" points="50,-571 50,-592 189,-592 189,-571 50,-571"/>
<text text-anchor="start" x="112.5" y="-577.8" font-family="Times,serif" font-size="14.00">id</text>
<polygon fill="none" stroke="black" points="23,-550 23,-571 50,-571 50,-550 23,-550"/>
<text text-anchor="start" x="34" y="-556.8" font-family="Times,serif" font-size="14.00"> </text>
<polygon fill="none" stroke="black" points="50,-550 50,-571 189,-571 189,-550 50,-550"/>
<text text-anchor="start" x="93.5" y="-556.8" font-family="Times,serif" font-size="14.00">plan_id</text>
<polygon fill="none" stroke="black" points="23,-529 23,-550 50,-550 50,-529 23,-529"/>
<text text-anchor="start" x="34" y="-535.8" font-family="Times,serif" font-size="14.00"> </text>
<polygon fill="none" stroke="black" points="50,-529 50,-550 189,-550 189,-529 50,-529"/>
<text text-anchor="start" x="55" y="-535.8" font-family="Times,serif" font-size="14.00">exercise_group_id</text>
<polygon fill="none" stroke="black" points="23,-508 23,-529 50,-529 50,-508 23,-508"/>
<text text-anchor="start" x="34" y="-514.8" font-family="Times,serif" font-size="14.00"> </text>
<polygon fill="none" stroke="black" points="50,-508 50,-529 189,-529 189,-508 50,-508"/>
<text text-anchor="start" x="99.5" y="-514.8" font-family="Times,serif" font-size="14.00">notes</text>
<polygon fill="none" stroke="black" points="23,-487 23,-508 50,-508 50,-487 23,-487"/>
<text text-anchor="start" x="34" y="-493.8" font-family="Times,serif" font-size="14.00"> </text>
<polygon fill="none" stroke="black" points="50,-487 50,-508 189,-508 189,-487 50,-487"/>
<text text-anchor="start" x="98" y="-493.8" font-family="Times,serif" font-size="14.00">config</text>
<polygon fill="none" stroke="black" points="23,-466 23,-487 50,-487 50,-466 23,-466"/>
<text text-anchor="start" x="34" y="-472.8" font-family="Times,serif" font-size="14.00"> </text>
<polygon fill="none" stroke="black" points="50,-466 50,-487 189,-487 189,-466 50,-466"/>
<text text-anchor="start" x="71" y="-472.8" font-family="Times,serif" font-size="14.00">creation_date</text>
<polygon fill="none" stroke="black" points="23,-445 23,-466 50,-466 50,-445 23,-445"/>
<text text-anchor="start" x="34" y="-451.8" font-family="Times,serif" font-size="14.00"> </text>
<polygon fill="none" stroke="black" points="50,-445 50,-466 189,-466 189,-445 50,-445"/>
<text text-anchor="start" x="54.5" y="-451.8" font-family="Times,serif" font-size="14.00">last_updated_date</text>
</g>
<!-- plan_exercise_group&#45;&gt;exercise_group -->
<g id="edge2" class="edge">
<title>plan_exercise_group:e&#45;&gt;exercise_group:w</title>
<path fill="none" stroke="black" d="M190,-540C219.48,-540 221.65,-510.91 244.94,-504.32"/>
<polygon fill="black" stroke="black" points="245.54,-507.77 255,-503 244.63,-500.83 245.54,-507.77"/>
</g>
<!-- plan_exercise_group&#45;&gt;plan -->
<g id="edge3" class="edge">
<title>plan_exercise_group:e&#45;&gt;plan:w</title>
<path fill="none" stroke="black" d="M190,-561C294.19,-561 322.76,-571.61 424,-547 541.04,-518.55 554.35,-438.7 668.74,-434.2"/>
<polygon fill="black" stroke="black" points="669.07,-437.69 679,-434 668.93,-430.69 669.07,-437.69"/>
</g>
<!-- plan_instance -->
<g id="node8" class="node">
<title>plan_instance</title>
<polygon fill="none" stroke="black" points="468,-318 468,-339 628,-339 628,-318 468,-318"/>
<text text-anchor="start" x="493.5" y="-325.8" font-family="Times,serif" font-weight="bold" font-size="14.00">plan_instance</text>
<polygon fill="none" stroke="black" points="468,-297 468,-318 492,-318 492,-297 468,-297"/>
<text text-anchor="start" x="471" y="-303.8" font-family="Times,serif" font-size="14.00">🔑</text>
<polygon fill="none" stroke="black" points="492,-297 492,-318 628,-318 628,-297 492,-297"/>
<text text-anchor="start" x="553" y="-303.8" font-family="Times,serif" font-size="14.00">id</text>
<polygon fill="none" stroke="black" points="468,-276 468,-297 492,-297 492,-276 468,-276"/>
<text text-anchor="start" x="477.5" y="-282.8" font-family="Times,serif" font-size="14.00"> </text>
<polygon fill="none" stroke="black" points="492,-276 492,-297 628,-297 628,-276 492,-276"/>
<text text-anchor="start" x="534" y="-282.8" font-family="Times,serif" font-size="14.00">plan_id</text>
<polygon fill="none" stroke="black" points="468,-255 468,-276 492,-276 492,-255 468,-255"/>
<text text-anchor="start" x="477.5" y="-261.8" font-family="Times,serif" font-size="14.00"> </text>
<polygon fill="none" stroke="black" points="492,-255 492,-276 628,-276 628,-255 492,-255"/>
<text text-anchor="start" x="534" y="-261.8" font-family="Times,serif" font-size="14.00">user_id</text>
<polygon fill="none" stroke="black" points="468,-234 468,-255 492,-255 492,-234 468,-234"/>
<text text-anchor="start" x="477.5" y="-240.8" font-family="Times,serif" font-size="14.00"> </text>
<polygon fill="none" stroke="black" points="492,-234 492,-255 628,-255 628,-234 492,-234"/>
<text text-anchor="start" x="523.5" y="-240.8" font-family="Times,serif" font-size="14.00">start_date</text>
<polygon fill="none" stroke="black" points="468,-213 468,-234 492,-234 492,-213 468,-213"/>
<text text-anchor="start" x="477.5" y="-219.8" font-family="Times,serif" font-size="14.00"> </text>
<polygon fill="none" stroke="black" points="492,-213 492,-234 628,-234 628,-213 492,-213"/>
<text text-anchor="start" x="511.5" y="-219.8" font-family="Times,serif" font-size="14.00">creation_date</text>
<polygon fill="none" stroke="black" points="468,-192 468,-213 492,-213 492,-192 468,-192"/>
<text text-anchor="start" x="477.5" y="-198.8" font-family="Times,serif" font-size="14.00"> </text>
<polygon fill="none" stroke="black" points="492,-192 492,-213 628,-213 628,-192 492,-192"/>
<text text-anchor="start" x="495" y="-198.8" font-family="Times,serif" font-size="14.00">last_updated_date</text>
</g>
<!-- plan_instance&#45;&gt;plan -->
<g id="edge12" class="edge">
<title>plan_instance:e&#45;&gt;plan:w</title>
<path fill="none" stroke="black" d="M629,-287C694.24,-287 619.15,-418.36 669.04,-432.73"/>
<polygon fill="black" stroke="black" points="668.64,-436.21 679,-434 669.52,-429.26 668.64,-436.21"/>
</g>
<!-- plan_instance&#45;&gt;user -->
<g id="edge11" class="edge">
<title>plan_instance:e&#45;&gt;user:w</title>
<path fill="none" stroke="black" d="M629,-265C726.7,-265 762.12,-237.43 848,-284 871.65,-296.83 863.29,-328.77 880.88,-337.03"/>
<polygon fill="black" stroke="black" points="880.51,-340.52 891,-339 881.86,-333.65 880.51,-340.52"/>
</g>
<!-- session -->
<g id="node9" class="node">
<title>session</title>
<polygon fill="none" stroke="black" points="256,-208 256,-229 416,-229 416,-208 256,-208"/>
<text text-anchor="start" x="306.5" y="-215.8" font-family="Times,serif" font-weight="bold" font-size="14.00">session</text>
<polygon fill="none" stroke="black" points="256,-187 256,-208 280,-208 280,-187 256,-187"/>
<text text-anchor="start" x="259" y="-193.8" font-family="Times,serif" font-size="14.00">🔑</text>
<polygon fill="none" stroke="black" points="280,-187 280,-208 416,-208 416,-187 280,-187"/>
<text text-anchor="start" x="341" y="-193.8" font-family="Times,serif" font-size="14.00">id</text>
<polygon fill="none" stroke="black" points="256,-166 256,-187 280,-187 280,-166 256,-166"/>
<text text-anchor="start" x="265.5" y="-172.8" font-family="Times,serif" font-size="14.00"> </text>
<polygon fill="none" stroke="black" points="280,-166 280,-187 416,-187 416,-166 280,-166"/>
<text text-anchor="start" x="289" y="-172.8" font-family="Times,serif" font-size="14.00">plan_instance_id</text>
<polygon fill="none" stroke="black" points="256,-145 256,-166 280,-166 280,-145 256,-145"/>
<text text-anchor="start" x="265.5" y="-151.8" font-family="Times,serif" font-size="14.00"> </text>
<polygon fill="none" stroke="black" points="280,-145 280,-166 416,-166 416,-145 280,-145"/>
<text text-anchor="start" x="300" y="-151.8" font-family="Times,serif" font-size="14.00">planned_date</text>
<polygon fill="none" stroke="black" points="256,-124 256,-145 280,-145 280,-124 256,-124"/>
<text text-anchor="start" x="265.5" y="-130.8" font-family="Times,serif" font-size="14.00"> </text>
<polygon fill="none" stroke="black" points="280,-124 280,-145 416,-145 416,-124 280,-124"/>
<text text-anchor="start" x="291" y="-130.8" font-family="Times,serif" font-size="14.00">performed_date</text>
<polygon fill="none" stroke="black" points="256,-103 256,-124 280,-124 280,-103 256,-103"/>
<text text-anchor="start" x="265.5" y="-109.8" font-family="Times,serif" font-size="14.00"> </text>
<polygon fill="none" stroke="black" points="280,-103 280,-124 416,-124 416,-103 280,-103"/>
<text text-anchor="start" x="299.5" y="-109.8" font-family="Times,serif" font-size="14.00">creation_date</text>
<polygon fill="none" stroke="black" points="256,-82 256,-103 280,-103 280,-82 256,-82"/>
<text text-anchor="start" x="265.5" y="-88.8" font-family="Times,serif" font-size="14.00"> </text>
<polygon fill="none" stroke="black" points="280,-82 280,-103 416,-103 416,-82 280,-82"/>
<text text-anchor="start" x="283" y="-88.8" font-family="Times,serif" font-size="14.00">last_updated_date</text>
</g>
<!-- session&#45;&gt;plan_instance -->
<g id="edge1" class="edge">
<title>session:e&#45;&gt;plan_instance:w</title>
<path fill="none" stroke="black" d="M417,-177C475.42,-177 413.48,-292.14 456.85,-306.53"/>
<polygon fill="black" stroke="black" points="456.6,-310.03 467,-308 457.61,-303.1 456.6,-310.03"/>
</g>
<!-- session_exercise -->
<g id="node10" class="node">
<title>session_exercise</title>
<polygon fill="none" stroke="black" points="26,-261 26,-282 186,-282 186,-261 26,-261"/>
<text text-anchor="start" x="41" y="-268.8" font-family="Times,serif" font-weight="bold" font-size="14.00">session_exercise</text>
<polygon fill="none" stroke="black" points="26,-240 26,-261 50,-261 50,-240 26,-240"/>
<text text-anchor="start" x="29" y="-246.8" font-family="Times,serif" font-size="14.00">🔑</text>
<polygon fill="none" stroke="black" points="50,-240 50,-261 186,-261 186,-240 50,-240"/>
<text text-anchor="start" x="111" y="-246.8" font-family="Times,serif" font-size="14.00">id</text>
<polygon fill="none" stroke="black" points="26,-219 26,-240 50,-240 50,-219 26,-219"/>
<text text-anchor="start" x="35.5" y="-225.8" font-family="Times,serif" font-size="14.00"> </text>
<polygon fill="none" stroke="black" points="50,-219 50,-240 186,-240 186,-219 50,-219"/>
<text text-anchor="start" x="78" y="-225.8" font-family="Times,serif" font-size="14.00">exercise_id</text>
<polygon fill="none" stroke="black" points="26,-198 26,-219 50,-219 50,-198 26,-198"/>
<text text-anchor="start" x="35.5" y="-204.8" font-family="Times,serif" font-size="14.00"> </text>
<polygon fill="none" stroke="black" points="50,-198 50,-219 186,-219 186,-198 50,-198"/>
<text text-anchor="start" x="81.5" y="-204.8" font-family="Times,serif" font-size="14.00">session_id</text>
<polygon fill="none" stroke="black" points="26,-177 26,-198 50,-198 50,-177 26,-177"/>
<text text-anchor="start" x="35.5" y="-183.8" font-family="Times,serif" font-size="14.00"> </text>
<polygon fill="none" stroke="black" points="50,-177 50,-198 186,-198 186,-177 50,-177"/>
<text text-anchor="start" x="71" y="-183.8" font-family="Times,serif" font-size="14.00">planned_sets</text>
<polygon fill="none" stroke="black" points="26,-156 26,-177 50,-177 50,-156 26,-156"/>
<text text-anchor="start" x="35.5" y="-162.8" font-family="Times,serif" font-size="14.00"> </text>
<polygon fill="none" stroke="black" points="50,-156 50,-177 186,-177 186,-156 50,-156"/>
<text text-anchor="start" x="62" y="-162.8" font-family="Times,serif" font-size="14.00">performed_sets</text>
<polygon fill="none" stroke="black" points="26,-135 26,-156 50,-156 50,-135 26,-135"/>
<text text-anchor="start" x="35.5" y="-141.8" font-family="Times,serif" font-size="14.00"> </text>
<polygon fill="none" stroke="black" points="50,-135 50,-156 186,-156 186,-135 50,-135"/>
<text text-anchor="start" x="69.5" y="-141.8" font-family="Times,serif" font-size="14.00">creation_date</text>
<polygon fill="none" stroke="black" points="26,-114 26,-135 50,-135 50,-114 26,-114"/>
<text text-anchor="start" x="35.5" y="-120.8" font-family="Times,serif" font-size="14.00"> </text>
<polygon fill="none" stroke="black" points="50,-114 50,-135 186,-135 186,-114 50,-114"/>
<text text-anchor="start" x="53" y="-120.8" font-family="Times,serif" font-size="14.00">last_updated_date</text>
</g>
<!-- session_exercise&#45;&gt;exercise -->
<g id="edge6" class="edge">
<title>session_exercise:e&#45;&gt;exercise:w</title>
<path fill="none" stroke="black" d="M187,-230C244.95,-230 199.59,-336.79 245.03,-349.72"/>
<polygon fill="black" stroke="black" points="244.64,-353.2 255,-351 245.53,-346.26 244.64,-353.2"/>
</g>
<!-- session_exercise&#45;&gt;session -->
<g id="edge5" class="edge">
<title>session_exercise:e&#45;&gt;session:w</title>
<path fill="none" stroke="black" d="M187,-209C213.91,-209 222.4,-200.5 244.84,-198.44"/>
<polygon fill="black" stroke="black" points="245.16,-201.93 255,-198 244.86,-194.94 245.16,-201.93"/>
</g>
<!-- temporary_login -->
<g id="node11" class="node">
<title>temporary_login</title>
<polygon fill="none" stroke="black" points="693,-211 693,-232 828,-232 828,-211 693,-211"/>
<text text-anchor="start" x="696" y="-218.8" font-family="Times,serif" font-weight="bold" font-size="14.00">temporary_login</text>
<polygon fill="none" stroke="black" points="693,-190 693,-211 727,-211 727,-190 693,-190"/>
<text text-anchor="start" x="701" y="-196.8" font-family="Times,serif" font-size="14.00">🔑</text>
<polygon fill="none" stroke="black" points="727,-190 727,-211 828,-211 828,-190 727,-190"/>
<text text-anchor="start" x="770.5" y="-196.8" font-family="Times,serif" font-size="14.00">id</text>
<polygon fill="none" stroke="black" points="693,-169 693,-190 727,-190 727,-169 693,-169"/>
<text text-anchor="start" x="707.5" y="-175.8" font-family="Times,serif" font-size="14.00"> </text>
<polygon fill="none" stroke="black" points="727,-169 727,-190 828,-190 828,-169 727,-169"/>
<text text-anchor="start" x="751.5" y="-175.8" font-family="Times,serif" font-size="14.00">user_id</text>
<polygon fill="none" stroke="black" points="693,-148 693,-169 727,-169 727,-148 693,-148"/>
<text text-anchor="start" x="707.5" y="-154.8" font-family="Times,serif" font-size="14.00"> </text>
<polygon fill="none" stroke="black" points="727,-148 727,-169 828,-169 828,-148 727,-148"/>
<text text-anchor="start" x="735.5" y="-154.8" font-family="Times,serif" font-size="14.00">expiry_date</text>
<polygon fill="none" stroke="black" points="693,-127 693,-148 727,-148 727,-127 693,-127"/>
<text text-anchor="start" x="707.5" y="-133.8" font-family="Times,serif" font-size="14.00"> </text>
<polygon fill="none" stroke="black" points="727,-127 727,-148 828,-148 828,-127 727,-127"/>
<text text-anchor="start" x="767" y="-133.8" font-family="Times,serif" font-size="14.00">url</text>
</g>
<!-- temporary_login&#45;&gt;user -->
<g id="edge4" class="edge">
<title>temporary_login:e&#45;&gt;user:w</title>
<path fill="none" stroke="black" d="M829,-179C901.54,-179 823.18,-323.76 880.98,-337.89"/>
<polygon fill="black" stroke="black" points="880.68,-341.38 891,-339 881.45,-334.42 880.68,-341.38"/>
</g>
</g>
</svg>
